<svg width="12" height="12" viewBox="0 0 12 12" fill="none" xmlns="http://www.w3.org/2000/svg">
<path d="M11.7149 3.08091L11.1374 2.50317C10.9372 2.31325 10.7035 2.21826 10.4366 2.21826C10.1643 2.21826 9.93333 2.31325 9.74333 2.50317L6.00001 6.24658L2.25673 2.50328C2.06676 2.31336 1.83572 2.21837 1.56349 2.21837C1.29653 2.21837 1.06282 2.31336 0.862652 2.50328L0.292676 3.08102C0.0975228 3.27604 0 3.50974 0 3.78191C0 4.05916 0.0976307 4.29022 0.292649 4.47504L5.30675 9.48916C5.49168 9.6842 5.72263 9.7818 5.99999 9.7818C6.27213 9.7818 6.50581 9.68423 6.70078 9.48916L11.7149 4.47504C11.9049 4.28501 12 4.05398 12 3.78191C12 3.51481 11.9049 3.28124 11.7149 3.08091Z" fill="#0EBED9"/>
</svg>
