<svg width="12" height="12" viewBox="0 0 12 12" fill="none" xmlns="http://www.w3.org/2000/svg">
<path d="M11.7149 8.91909L11.1374 9.49683C10.9372 9.68675 10.7035 9.78174 10.4366 9.78174C10.1643 9.78174 9.93333 9.68675 9.74333 9.49683L6.00001 5.75342L2.25673 9.49672C2.06676 9.68664 1.83572 9.78163 1.56349 9.78163C1.29653 9.78163 1.06282 9.68664 0.862652 9.49672L0.292676 8.91898C0.0975228 8.72396 0 8.49026 0 8.21809C0 7.94084 0.0976307 7.70978 0.292649 7.52496L5.30675 2.51084C5.49168 2.3158 5.72263 2.2182 5.99999 2.2182C6.27213 2.2182 6.50581 2.31577 6.70078 2.51084L11.7149 7.52496C11.9049 7.71499 12 7.94602 12 8.21809C12 8.48519 11.9049 8.71876 11.7149 8.91909Z" fill="#0EBED9"/>
</svg>
