<svg width="42" height="42" viewBox="0 0 42 42" fill="none" xmlns="http://www.w3.org/2000/svg">
<g clip-path="url(#clip0_301_354)">
<path d="M35.8853 42.0002H1.74026C1.07039 42.0002 0.527344 41.457 0.527344 40.7872V21.0752C0.527344 20.4054 1.07039 19.8623 1.74026 19.8623C2.41012 19.8623 2.95317 20.4054 2.95317 21.0752V39.5743H34.6723V36.8722C34.6723 36.2024 35.2153 35.6593 35.8852 35.6593C36.5551 35.6593 37.0981 36.2024 37.0981 36.8722V40.7872C37.0982 41.457 36.5551 42.0002 35.8853 42.0002Z" fill="#0EBED9"/>
<path d="M1.74011 14.5271V14.134L14.4431 1.21289V14.5271H1.74011Z" fill="#CEE8FA"/>
<path d="M40.2608 18H16.1212V31.4295H40.2608V18Z" fill="#CEE8FA"/>
<path d="M40.2604 16.7864H37.0981V1.21291C37.0981 0.543129 36.5551 0 35.8852 0H14.4432C14.4378 0 14.4324 0.000738281 14.427 0.000820312C14.3976 0.00114844 14.3682 0.002625 14.3388 0.00516797C14.329 0.00598828 14.3191 0.00689063 14.3092 0.00795703C14.2756 0.0117305 14.2423 0.0165703 14.2091 0.0231328C14.2066 0.023625 14.2041 0.0238711 14.2016 0.0243633C14.1661 0.0316641 14.1312 0.0407695 14.0966 0.0510234C14.0875 0.0537305 14.0785 0.0568477 14.0695 0.0597188C14.0431 0.068332 14.0169 0.0777656 13.9909 0.0881836C13.9821 0.091793 13.9731 0.0952383 13.9643 0.0990117C13.8982 0.127395 13.8343 0.161848 13.7735 0.202125C13.7652 0.207621 13.7571 0.213527 13.7489 0.219105C13.7265 0.234773 13.7046 0.251262 13.6831 0.26857C13.6749 0.275133 13.6668 0.281449 13.6589 0.288258C13.6311 0.311801 13.604 0.336328 13.5781 0.362578L0.87528 13.2837C0.846897 13.3126 0.820237 13.3427 0.795136 13.374C0.780206 13.3925 0.767081 13.4119 0.753382 13.4311C0.744194 13.4439 0.734187 13.4564 0.725491 13.4696C0.709577 13.4937 0.695632 13.5188 0.681686 13.5437C0.676601 13.5529 0.670776 13.5617 0.665937 13.571C0.652319 13.5968 0.640671 13.6234 0.629104 13.65C0.625003 13.6594 0.620245 13.6685 0.61639 13.6779C0.606054 13.7035 0.59744 13.7294 0.588827 13.7555C0.585054 13.7669 0.580706 13.778 0.577343 13.7894C0.570206 13.8135 0.564874 13.8379 0.559296 13.8623C0.556015 13.8764 0.552159 13.8902 0.54937 13.9045C0.545022 13.927 0.542479 13.9497 0.539444 13.9722C0.537229 13.9887 0.534358 14.0049 0.5328 14.0214C0.530749 14.0434 0.530339 14.0653 0.529519 14.0871C0.528944 14.1028 0.527222 14.1183 0.527222 14.134V14.5271C0.527222 15.1969 1.07027 15.74 1.74014 15.74H14.4431C15.113 15.74 15.656 15.1969 15.656 14.5271V2.42583H34.6722V16.7864H16.1208C15.4509 16.7864 14.9079 17.3295 14.9079 17.9993V31.4282C14.9079 32.098 15.4509 32.6411 16.1208 32.6411H40.2603C40.9302 32.6411 41.4732 32.098 41.4732 31.4282V17.9994C41.4733 17.3296 40.9302 16.7864 40.2604 16.7864ZM4.24709 13.3143L8.17951 9.31448L13.2303 4.17687V13.3143H4.24709ZM39.0475 30.2153H17.3338V19.2123H39.0475V30.2153Z" fill="#0EBED9"/>
<path d="M20.1866 21.3889C20.1866 21.1264 20.4265 20.8955 20.7915 20.8955H22.9508C24.3277 20.8955 25.4124 21.5463 25.4124 23.3099V23.3624C25.4124 25.126 24.2858 25.7979 22.8464 25.7979H21.8137V28.0653C21.8137 28.4013 21.4069 28.5691 21.0001 28.5691C20.5932 28.5691 20.1864 28.4011 20.1864 28.0653L20.1866 21.3889ZM21.8137 22.3231V24.5381H22.8464C23.4306 24.5381 23.7852 24.2021 23.7852 23.4884V23.373C23.7852 22.6591 23.4306 22.3233 22.8464 22.3233H21.8137V22.3231Z" fill="#0EBED9"/>
<path d="M28.6771 20.8955C30.1166 20.8955 31.2432 21.5673 31.2432 23.373V26.0919C31.2432 27.8975 30.1167 28.5694 28.6771 28.5694H26.8308C26.4031 28.5694 26.1215 28.3384 26.1215 28.076V21.389C26.1215 21.1265 26.4031 20.8956 26.8308 20.8956H28.6771V20.8955ZM27.7488 22.3231V27.1415H28.6771C29.2613 27.1415 29.6159 26.8055 29.6159 26.0918V23.3729C29.6159 22.659 29.2613 22.3232 28.6771 22.3232H27.7488V22.3231Z" fill="#0EBED9"/>
<path d="M32.276 21.3993C32.276 21.0633 32.6306 20.8955 32.9853 20.8955H36.605C36.9492 20.8955 37.0953 21.2629 37.0953 21.5988C37.0953 21.9873 36.9179 22.3232 36.605 22.3232H33.9033V24.0973H35.4784C35.7913 24.0973 35.9687 24.4018 35.9687 24.7377C35.9687 25.0212 35.8226 25.357 35.4784 25.357H33.9033V28.0654C33.9033 28.4014 33.4965 28.5692 33.0896 28.5692C32.6828 28.5692 32.2759 28.4012 32.2759 28.0654V21.3993H32.276Z" fill="#0EBED9"/>
</g>
<defs>
<clipPath id="clip0_301_354">
<rect width="42" height="42" fill="white"/>
</clipPath>
</defs>
</svg>
