<svg width="59" height="68" viewBox="0 0 59 68" fill="none" xmlns="http://www.w3.org/2000/svg">
<path d="M29.1803 0L0 16.7708V50.3125L29.1803 67.0833L58.3686 50.3125V16.7708L29.1803 0ZM56.1733 32.106L33.1904 4.82772L56.1733 18.033V32.106ZM32.596 17.039L16.3575 26.379L26.6126 60.5754L3.83576 33.5338L28.689 4.031L32.596 17.039ZM19.4958 29.2188L26.993 33.5338L21.7069 36.5787L19.4958 29.2188ZM29.1803 34.7959L39.2452 40.586L29.3864 62.1925L22.3489 38.7244L29.1803 34.7959ZM19.8366 26.9075L33.238 19.1768L38.8252 37.8093L19.8366 26.9075ZM41.8288 40.2153L31.7084 6.46852L54.5169 33.5496L33.4678 58.5323L41.8288 40.2153ZM25.186 4.83562L2.20318 32.0981V18.0251L25.186 4.83562ZM2.20318 34.9931L25.186 62.2793L2.20318 49.0661V34.9537V34.9931ZM33.1904 62.2793L56.1733 34.9774V49.0582L33.1904 62.2793Z" fill="#9B8764"/>
</svg>
