<svg width="48" height="48" viewBox="0 0 48 48" fill="none" xmlns="http://www.w3.org/2000/svg">
<g clip-path="url(#clip0_301_1050)">
<path d="M30.8803 14.9638C30.8803 12.4068 30.0751 9.89789 28.5505 7.70527L25.1262 2.78012C24.3454 1.65728 22.6844 1.65728 21.9037 2.78012L18.4794 7.70527C16.9551 9.89789 16.1496 12.4068 16.1496 14.9638L16.1072 36.5831C16.1072 36.5838 16.1078 36.5843 16.1086 36.5841C16.229 36.5394 16.4276 36.4715 16.551 36.4362C16.5531 36.4357 16.5551 36.435 16.5573 36.4344C16.6069 36.4204 16.6566 36.4073 16.7068 36.395C16.7496 36.3844 16.7931 36.3747 16.8366 36.3652C16.8787 36.3559 16.9207 36.3459 16.9633 36.338C17.0461 36.322 17.1297 36.3087 17.2138 36.2971C17.2518 36.2917 17.2903 36.2881 17.3285 36.2833C17.3881 36.276 17.448 36.2707 17.5081 36.2662C17.5379 36.2639 17.5677 36.2617 17.5978 36.2599C17.6924 36.2542 17.7876 36.2506 17.8835 36.2506C18.2814 36.2506 18.668 36.2981 19.0382 36.3876C19.285 36.4475 19.5245 36.5258 19.7552 36.6213C19.9282 36.6929 20.0961 36.7742 20.2585 36.8643C20.421 36.9544 21.0608 36.6794 21.2567 36.4633C21.3665 36.3419 21.4833 36.2271 21.6047 36.1172C22.4746 35.3302 23.626 34.849 24.8914 34.849C26.3119 34.849 27.5907 35.4532 28.4862 36.418C28.7304 36.6812 28.9461 36.9712 29.1285 37.2831C29.2501 37.4911 29.6509 37.767 29.7558 37.6867C29.7806 37.6678 29.8057 37.6492 29.8307 37.6305C29.9349 37.5532 30.0407 37.4779 30.1492 37.4062C30.1505 37.4053 30.1518 37.4044 30.1532 37.4035C30.2702 37.3265 30.39 37.2536 30.5115 37.1835C30.5262 37.1751 30.541 37.1667 30.5557 37.1585C30.6759 37.0904 30.798 37.0251 30.9224 36.964L30.8803 14.9638ZM23.515 20.2495C21.6905 20.2495 20.2115 18.7705 20.2115 16.946C20.2115 15.1215 21.6905 13.6425 23.515 13.6425C25.3395 13.6425 26.8185 15.1215 26.8185 16.946C26.8185 18.7705 25.3397 20.2495 23.515 20.2495Z" fill="#CEE8FA"/>
<path d="M23.5154 21.6112C20.943 21.6112 18.8503 19.5183 18.8503 16.9461C18.8503 14.3739 20.9432 12.281 23.5154 12.281C26.0878 12.281 28.1805 14.3739 28.1805 16.9461C28.1805 19.5183 26.0877 21.6112 23.5154 21.6112ZM23.5154 15.004C22.4446 15.004 21.5735 15.8751 21.5735 16.9459C21.5735 18.0167 22.4446 18.8878 23.5154 18.8878C24.5862 18.8878 25.4574 18.0167 25.4574 16.9459C25.4574 15.8751 24.5861 15.004 23.5154 15.004Z" fill="#0EBED9"/>
<path d="M29.7057 39.0629C28.8941 39.0629 28.1997 38.3929 27.9531 37.9706C27.8219 37.7462 27.6657 37.5356 27.4884 37.3445C26.8101 36.6133 25.8879 36.2108 24.8916 36.2108C24.0142 36.2108 23.1714 36.5362 22.5183 37.127C22.4232 37.2131 22.3407 37.295 22.2663 37.3771C21.8334 37.8551 20.9728 38.2437 20.3475 38.2437C20.0758 38.2437 19.8236 38.1802 19.5981 38.0549C19.4809 37.9897 19.3585 37.9308 19.2345 37.8793C19.0677 37.8103 18.894 37.7536 18.7182 37.7112C18.3804 37.6295 18.0238 37.5991 17.6773 37.6193L17.6111 37.6242C17.5725 37.627 17.5341 37.63 17.4959 37.6348L17.4008 37.6459C17.3398 37.6543 17.2798 37.6637 17.2202 37.6752C17.2012 37.6787 17.1847 37.6827 17.1681 37.6865L17.1281 37.6953C17.0969 37.7022 17.0655 37.7091 17.0344 37.7167C16.9982 37.7255 16.9622 37.7351 16.9264 37.7452C16.8514 37.7666 16.6907 37.8207 16.5818 37.8611C16.5677 37.8662 16.5536 37.8713 16.5393 37.8759C16.4005 37.9222 16.2549 37.9459 16.1086 37.9459H16.1085C15.3566 37.9458 14.7461 37.3352 14.7461 36.5834L14.7886 14.9614C14.7886 12.1284 15.6784 9.34977 17.3619 6.92831L20.7862 2.00316C21.4072 1.10982 22.4274 0.57666 23.5154 0.57666C24.6033 0.57666 25.6237 1.11 26.2447 2.00316L29.6687 6.92812C31.3521 9.34949 32.2419 12.1281 32.2419 14.9638L32.2843 36.9614C32.2855 37.4814 31.9901 37.9567 31.5234 38.186C31.4283 38.2327 31.3316 38.2841 31.2275 38.343L31.1923 38.3629C31.089 38.4225 30.9981 38.4781 30.9142 38.533C30.9093 38.5363 30.9043 38.5396 30.8994 38.5429C30.822 38.594 30.7377 38.6533 30.642 38.7244L30.5813 38.7701C30.331 38.9613 30.0277 39.0629 29.7057 39.0629ZM24.8915 33.4878C26.6284 33.4878 28.3024 34.2184 29.4844 35.4924C29.5093 35.5192 29.5338 35.5462 29.5584 35.5734L29.5186 14.9666C29.5186 12.6867 28.7973 10.4454 27.4326 8.48268L24.0084 3.55753C23.8524 3.33319 23.6322 3.29962 23.515 3.29962C23.3976 3.29962 23.1776 3.33309 23.0216 3.55753L19.5973 8.48268C18.2326 10.4456 17.5112 12.6867 17.5112 14.9639L17.4721 34.9038C17.4879 34.9027 17.5038 34.9017 17.5198 34.9008C17.6544 34.8929 17.7705 34.8893 17.8834 34.8893C18.3813 34.8893 18.8775 34.9483 19.3582 35.0645C19.6704 35.1401 19.9791 35.2407 20.2756 35.3635C20.3105 35.3779 20.3454 35.3926 20.3801 35.4078C20.477 35.3076 20.5797 35.2085 20.6908 35.108C21.8461 34.0631 23.3377 33.4878 24.8915 33.4878Z" fill="#0EBED9"/>
<path d="M45.007 47.4234H34.8913C34.1394 47.4234 33.5297 46.8139 33.5297 46.0619C33.5297 45.3099 34.1394 44.7004 34.8913 44.7004H45.007C45.1127 44.7004 45.1801 44.6443 45.211 44.6109C45.2596 44.5582 45.2817 44.4974 45.2763 44.4298L45.2733 44.3944C45.1479 43.0157 44.0093 41.9082 42.6252 41.8227C42.128 41.792 41.653 41.884 41.2123 42.0958C40.8656 42.2628 40.4643 42.2749 40.1081 42.1295C39.7518 41.9841 39.4737 41.6948 39.3424 41.3331C38.535 39.1074 36.4012 37.6121 34.033 37.6121C32.6886 37.6121 31.3856 38.0941 30.3639 38.9692C30.0301 39.2549 29.5792 39.3617 29.1531 39.2572C28.7266 39.1524 28.377 38.8484 28.214 38.4405C27.6722 37.0859 26.3805 36.2106 24.9226 36.2106C23.6922 36.2106 22.5677 36.8354 21.9143 37.8818C21.7154 38.2004 21.3936 38.4228 21.0254 38.4962C20.657 38.5694 20.2746 38.4875 19.9688 38.2693C19.3659 37.8394 18.6556 37.6121 17.9148 37.6121C17.3127 37.6121 16.7176 37.7663 16.1938 38.0582C15.6456 38.3634 14.9599 38.2547 14.533 37.7947C13.5854 36.7732 12.2976 36.2106 10.907 36.2106C8.17996 36.2106 5.96127 38.4292 5.96127 41.1562C5.96127 41.3451 5.97299 41.5368 5.99737 41.7426C6.08446 42.4812 5.56274 43.153 4.82549 43.2515C4.05103 43.355 3.34819 43.7036 2.79281 44.2596C2.76215 44.2904 2.68078 44.3719 2.74472 44.5263C2.79262 44.6419 2.87831 44.7004 2.99934 44.7004H25.3609C26.1128 44.7004 26.7225 45.31 26.7225 46.062C26.7225 46.8139 26.1128 47.4235 25.3609 47.4235H2.99887C1.78313 47.4235 0.695721 46.6956 0.228847 45.569C-0.233152 44.4545 0.0168784 43.1853 0.865783 42.3354C1.53591 41.6645 2.35472 41.1547 3.24412 40.8444C3.40847 36.7599 6.78252 33.4878 10.9066 33.4878C12.6974 33.4878 14.4341 34.123 15.8023 35.2562C16.4775 35.0147 17.1933 34.8893 17.9145 34.8893C18.7826 34.8893 19.627 35.0657 20.4083 35.4058C21.5765 34.1875 23.19 33.4878 24.9225 33.4878C26.9291 33.4878 28.7579 34.4254 29.9215 35.9703C31.1685 35.2665 32.5845 34.8893 34.0328 34.8893C37.0969 34.8893 39.896 36.5782 41.3539 39.2017C41.825 39.1081 42.3096 39.0748 42.7928 39.1049C45.5066 39.2725 47.7388 41.4423 47.9856 44.1521L47.9907 44.2132C48.0564 45.0319 47.7726 45.8505 47.2122 46.4579C46.6457 47.0715 45.842 47.4234 45.007 47.4234Z" fill="#0EBED9"/>
<path d="M36.2283 36.2546C36.0829 36.2546 35.9348 36.2311 35.7894 36.1817C35.0775 35.9394 34.697 35.166 34.9391 34.4541L37.1354 28.0009C37.31 27.488 37.1345 26.9272 36.6986 26.6054L34.6545 25.096C34.0497 24.6493 33.9213 23.7968 34.368 23.1919C34.8146 22.5871 35.6673 22.4589 36.272 22.9054L38.3161 24.4147C39.7099 25.444 40.2714 27.2377 39.7132 28.8783L37.5169 35.3314C37.3243 35.8977 36.7951 36.2546 36.2283 36.2546Z" fill="#0EBED9"/>
<path d="M10.8018 36.2545C10.235 36.2545 9.70576 35.8976 9.51292 35.3312L7.31664 28.878C6.75827 27.2377 7.31974 25.444 8.7137 24.4146L10.7576 22.9051C11.3626 22.4583 12.2152 22.5866 12.6618 23.1914C13.1085 23.7963 12.9803 24.6488 12.3755 25.0955L10.3314 26.6051C9.89542 26.9269 9.71992 27.4877 9.89458 28.0006L12.0909 34.4538C12.3331 35.1657 11.9524 35.9391 11.2405 36.1813C11.0952 36.2308 10.9472 36.2545 10.8018 36.2545Z" fill="#0EBED9"/>
</g>
<defs>
<clipPath id="clip0_301_1050">
<rect width="48" height="48" fill="white"/>
</clipPath>
</defs>
</svg>
