<svg width="48" height="48" viewBox="0 0 48 48" fill="none" xmlns="http://www.w3.org/2000/svg">
<g clip-path="url(#clip0_301_1038)">
<path d="M38.2442 39.6233H9.75623C9.17367 39.6233 8.66667 39.2249 8.52886 38.6586L3.87136 19.5118C3.76748 19.0851 3.89283 18.6351 4.2023 18.3234C4.51167 18.0117 4.96092 17.8828 5.38823 17.9838L14.44 20.1158L22.9545 7.54319C23.1894 7.19622 23.5813 6.98828 24.0003 6.98828C24.4195 6.98828 24.8112 7.19622 25.0462 7.54319L33.5607 20.1158L42.6124 17.9838C43.04 17.8828 43.4889 18.0116 43.7984 18.3234C44.1078 18.6351 44.2332 19.0851 44.1293 19.5118L42.0431 28.0878C41.8781 28.7657 41.195 29.1819 40.517 29.0168C39.8392 28.8518 39.4234 28.1687 39.5882 27.4909L41.1879 20.9148L33.2923 22.7745C32.782 22.8947 32.2507 22.6875 31.9569 22.2533L24.0002 10.5041L16.0436 22.2531C15.7498 22.6872 15.2185 22.8946 14.7082 22.7743L6.81258 20.9147L10.749 37.0968H37.2516L38.052 33.8066C38.217 33.1288 38.8999 32.7125 39.578 32.8776C40.2558 33.0426 40.6716 33.7257 40.5068 34.4035L39.4718 38.6584C39.3338 39.2248 38.8268 39.6233 38.2442 39.6233Z" fill="#0EBED9"/>
<path d="M23.9999 12.0329C25.9824 12.0329 27.5896 10.4257 27.5896 8.44321C27.5896 6.46068 25.9824 4.85352 23.9999 4.85352C22.0174 4.85352 20.4102 6.46068 20.4102 8.44321C20.4102 10.4257 22.0174 12.0329 23.9999 12.0329Z" fill="#CEE8FA"/>
<path d="M24.0001 13.2966C21.324 13.2966 19.1469 11.1196 19.1469 8.44349C19.1469 5.76739 21.324 3.59033 24.0001 3.59033C26.6762 3.59033 28.8532 5.76739 28.8532 8.44349C28.8532 11.1196 26.6762 13.2966 24.0001 13.2966ZM24.0001 6.11661C22.7171 6.11661 21.6732 7.16052 21.6732 8.44349C21.6732 9.72646 22.7171 10.7704 24.0001 10.7704C25.283 10.7704 26.3269 9.72646 26.3269 8.44349C26.3269 7.16052 25.283 6.11661 24.0001 6.11661Z" fill="#0EBED9"/>
<path d="M43.1465 22.8029C45.129 22.8029 46.7361 21.1958 46.7361 19.2132C46.7361 17.2307 45.129 15.6235 43.1465 15.6235C41.1639 15.6235 39.5568 17.2307 39.5568 19.2132C39.5568 21.1958 41.1639 22.8029 43.1465 22.8029Z" fill="#CEE8FA"/>
<path d="M43.147 24.0662C40.4709 24.0662 38.2938 21.8891 38.2938 19.213C38.2938 16.5369 40.471 14.3599 43.147 14.3599C45.823 14.3599 48.0001 16.5369 48.0001 19.2129C48.0001 21.8889 45.8231 24.0662 43.147 24.0662ZM43.147 16.8862C41.8638 16.8862 40.8201 17.9301 40.8201 19.2131C40.8201 20.4961 41.864 21.54 43.147 21.54C44.43 21.54 45.4739 20.4961 45.4739 19.2131C45.4739 17.9301 44.43 16.8862 43.147 16.8862Z" fill="#0EBED9"/>
<path d="M4.85324 22.8029C6.83577 22.8029 8.44292 21.1958 8.44292 19.2132C8.44292 17.2307 6.83577 15.6235 4.85324 15.6235C2.87071 15.6235 1.26355 17.2307 1.26355 19.2132C1.26355 21.1958 2.87071 22.8029 4.85324 22.8029Z" fill="#CEE8FA"/>
<path d="M4.85316 24.0663C2.17706 24.0663 0 21.8892 0 19.213C0 16.5368 2.17706 14.3599 4.85316 14.3599C7.52925 14.3599 9.70631 16.5369 9.70631 19.213C9.70631 21.8891 7.52916 24.0663 4.85316 24.0663ZM4.85316 16.8863C3.57019 16.8863 2.52628 17.9302 2.52628 19.2132C2.52628 20.4962 3.57019 21.5401 4.85316 21.5401C6.13631 21.5401 7.18003 20.4962 7.18003 19.2132C7.18003 17.9302 6.13631 16.8863 4.85316 16.8863Z" fill="#0EBED9"/>
<path d="M24.2853 34.3439C23.4715 34.3439 22.7064 34.0269 22.1308 33.4515L18.1381 29.4588C16.9502 28.2708 16.9502 26.338 18.1381 25.15L22.1308 21.1573C22.7065 20.5817 23.4716 20.2651 24.2853 20.2651C25.0991 20.2651 25.8642 20.5819 26.4396 21.1573L30.4324 25.15C31.6203 26.338 31.6203 28.2708 30.4324 29.4588L26.4397 33.4515C25.8642 34.0269 25.0992 34.3439 24.2853 34.3439ZM24.2853 22.7911C24.2047 22.7911 24.0498 22.8108 23.9171 22.9435L19.9244 26.9362C19.7215 27.1391 19.7215 27.4694 19.9244 27.6722L23.9172 31.665C24.0498 31.7977 24.2047 31.8174 24.2852 31.8174C24.3657 31.8174 24.5206 31.7977 24.6533 31.665L28.646 27.6722C28.849 27.4694 28.849 27.1391 28.646 26.9362L24.6533 22.9435C24.5209 22.8108 24.3658 22.7911 24.2853 22.7911Z" fill="#0EBED9"/>
<path d="M36.8043 43.1466H11.3116C10.4524 43.1466 9.75592 42.4501 9.75592 41.5909V38.3599H38.36V41.5909C38.36 42.45 37.6635 43.1466 36.8043 43.1466Z" fill="#CEE8FA"/>
<path d="M36.8046 44.4101H11.3119C9.75757 44.4101 8.49298 43.1456 8.49298 41.5913V38.3604C8.49298 37.6629 9.05848 37.0972 9.75617 37.0972H38.3602C39.0579 37.0972 39.6234 37.6629 39.6234 38.3604V41.5913C39.6234 43.1456 38.3588 44.4101 36.8046 44.4101ZM11.0194 39.6235V41.5913C11.0194 41.7526 11.1506 41.8839 11.3119 41.8839H36.8045C36.9659 41.8839 37.0969 41.7526 37.0969 41.5913V39.6235H11.0194Z" fill="#0EBED9"/>
</g>
<defs>
<clipPath id="clip0_301_1038">
<rect width="48" height="48" fill="white"/>
</clipPath>
</defs>
</svg>
