<svg width="48" height="48" viewBox="0 0 48 48" fill="none" xmlns="http://www.w3.org/2000/svg">
<g clip-path="url(#clip0_301_1019)">
<path d="M27.9033 38.8168C27.306 38.8168 26.7661 38.4064 26.626 37.7997L23.4005 23.8319C23.2374 23.1259 23.6777 22.4214 24.3838 22.2583C25.0899 22.0952 25.7944 22.5355 25.9575 23.2415L29.183 37.2093C29.3461 37.9153 28.9058 38.6199 28.1997 38.7829C28.1003 38.8058 28.001 38.8168 27.9033 38.8168Z" fill="#0EBED9"/>
<path d="M7.53731 36.7763C7.16259 36.7763 6.7905 36.6166 6.531 36.307C6.06562 35.7517 6.13847 34.9241 6.69384 34.4587L9.43734 32.1596C9.99272 31.6939 10.8203 31.7671 11.2858 32.3224C11.7512 32.8777 11.6783 33.7053 11.123 34.1707L8.37947 36.4698C8.13356 36.6758 7.8345 36.7763 7.53731 36.7763Z" fill="#0EBED9"/>
<path d="M13.8096 31.3132C13.4432 31.3132 13.079 31.1607 12.8197 30.8627C12.3438 30.3162 12.401 29.4876 12.9475 29.0116L33.8371 10.8189C34.3835 10.3431 35.2122 10.4003 35.6882 10.9467C36.164 11.4931 36.1068 12.3218 35.5604 12.7978L14.6707 30.9905C14.4222 31.2069 14.1151 31.3132 13.8096 31.3132Z" fill="#0EBED9"/>
<path d="M26.4632 26.632C26.0986 26.632 25.7358 26.4809 25.4765 26.1854L8.73295 7.10657C8.25501 6.56207 8.30901 5.73295 8.8537 5.25511C9.39829 4.77717 10.2273 4.83117 10.7053 5.37585L27.4488 24.4546C27.9269 24.9991 27.8728 25.8283 27.3281 26.3061C27.0791 26.5246 26.7705 26.632 26.4632 26.632Z" fill="#0EBED9"/>
<path d="M45.6051 23.9156H37.247C36.5223 23.9156 35.9349 23.328 35.9349 22.6035C35.9349 21.879 36.5224 21.2915 37.247 21.2915H45.6051C46.3297 21.2915 46.9171 21.879 46.9171 22.6035C46.9171 23.328 46.3297 23.9156 45.6051 23.9156Z" fill="#0EBED9"/>
<path d="M23.9504 31.1868C28.6911 31.1868 32.5341 27.3437 32.5341 22.603C32.5341 17.8624 28.6911 14.0193 23.9504 14.0193C19.2097 14.0193 15.3666 17.8624 15.3666 22.603C15.3666 27.3437 19.2097 31.1868 23.9504 31.1868Z" fill="#CEE8FA"/>
<path d="M23.9507 32.4988C18.4944 32.4988 14.0553 28.0598 14.0553 22.6034C14.0553 17.1471 18.4944 12.708 23.9507 12.708C29.407 12.708 33.8461 17.1471 33.8461 22.6034C33.8461 28.0598 29.407 32.4988 23.9507 32.4988ZM23.9507 15.3321C19.9413 15.3321 16.6794 18.5938 16.6794 22.6034C16.6794 26.613 19.9413 29.8748 23.9507 29.8748C27.9601 29.8748 31.222 26.613 31.222 22.6034C31.222 18.5938 27.9601 15.3321 23.9507 15.3321Z" fill="#0EBED9"/>
<path d="M9.71975 9.8073C11.6893 9.8073 13.286 8.21064 13.286 6.24105C13.286 4.27147 11.6893 2.6748 9.71975 2.6748C7.75017 2.6748 6.1535 4.27147 6.1535 6.24105C6.1535 8.21064 7.75017 9.8073 9.71975 9.8073Z" fill="#CEE8FA"/>
<path d="M9.71954 11.1197C7.02938 11.1197 4.84088 8.93121 4.84088 6.24105C4.84088 3.5509 7.02938 1.3623 9.71954 1.3623C12.4097 1.3623 14.5983 3.55099 14.5983 6.24105C14.5983 8.93112 12.4096 11.1197 9.71954 11.1197ZM9.71954 3.98646C8.47632 3.98646 7.46504 4.99793 7.46504 6.24115C7.46504 7.48437 8.47641 8.49565 9.71954 8.49565C10.9628 8.49565 11.9742 7.48427 11.9742 6.24115C11.9742 4.99802 10.9627 3.98646 9.71954 3.98646Z" fill="#0EBED9"/>
<path d="M28.7696 46.6375C25.8991 46.6375 23.5638 44.3022 23.5638 41.4317C23.5638 38.5611 25.8991 36.2258 28.7696 36.2258C31.6402 36.2258 33.9755 38.5611 33.9755 41.4317C33.9755 44.3022 31.6402 46.6375 28.7696 46.6375ZM28.7696 38.8499C27.346 38.8499 26.1879 40.0081 26.1879 41.4317C26.1879 42.8553 27.346 44.0135 28.7696 44.0135C30.1932 44.0135 31.3514 42.8553 31.3514 41.4317C31.3514 40.0081 30.1932 38.8499 28.7696 38.8499Z" fill="#0EBED9"/>
<path d="M36.6689 13.8204C34.5007 13.8204 32.7367 12.0565 32.7367 9.88821C32.7367 7.71996 34.5006 5.95605 36.6689 5.95605C38.8371 5.95605 40.601 7.71996 40.601 9.88821C40.601 12.0565 38.837 13.8204 36.6689 13.8204ZM36.6689 8.5804C35.9476 8.5804 35.3609 9.16718 35.3609 9.88839C35.3609 10.6096 35.9476 11.1964 36.6689 11.1964C37.3901 11.1964 37.9769 10.6096 37.9769 9.88839C37.9769 9.16718 37.3901 8.5804 36.6689 8.5804Z" fill="#0EBED9"/>
<path d="M43.4401 25.8516C45.2341 25.8516 46.6885 24.3973 46.6885 22.6032C46.6885 20.8091 45.2341 19.3547 43.4401 19.3547C41.646 19.3547 40.1917 20.8091 40.1917 22.6032C40.1917 24.3973 41.646 25.8516 43.4401 25.8516Z" fill="#CEE8FA"/>
<path d="M43.4396 27.1639C40.925 27.1639 38.8792 25.1182 38.8792 22.6034C38.8792 20.0888 40.925 18.043 43.4396 18.043C45.9543 18.043 48.0001 20.0887 48.0001 22.6034C48.0001 25.1181 45.9544 27.1639 43.4396 27.1639ZM43.4396 20.667C42.3719 20.667 41.5033 21.5356 41.5033 22.6034C41.5033 23.6711 42.3719 24.5397 43.4396 24.5397C44.5073 24.5397 45.3759 23.6711 45.3759 22.6034C45.3759 21.5356 44.5074 20.667 43.4396 20.667Z" fill="#0EBED9"/>
<path d="M4.87753 41.5497C6.84711 41.5497 8.44378 39.9531 8.44378 37.9835C8.44378 36.0139 6.84711 34.4172 4.87753 34.4172C2.90794 34.4172 1.31128 36.0139 1.31128 37.9835C1.31128 39.9531 2.90794 41.5497 4.87753 41.5497Z" fill="#CEE8FA"/>
<path d="M4.87875 42.8629C2.18869 42.8629 0 40.6742 0 37.9842C0 35.2943 2.18869 33.1055 4.87875 33.1055C7.56881 33.1055 9.7575 35.2942 9.7575 37.9842C9.7575 40.6744 7.56891 42.8629 4.87875 42.8629ZM4.87875 35.7296C3.63544 35.7296 2.62406 36.7411 2.62406 37.9843C2.62406 39.2275 3.63544 40.2389 4.87875 40.2389C6.12206 40.2389 7.13344 39.2274 7.13344 37.9843C7.13344 36.7411 6.12197 35.7296 4.87875 35.7296Z" fill="#0EBED9"/>
</g>
<defs>
<clipPath id="clip0_301_1019">
<rect width="48" height="48" fill="white"/>
</clipPath>
</defs>
</svg>
