<svg width="52" height="52" viewBox="0 0 52 52" fill="none" xmlns="http://www.w3.org/2000/svg">
<path d="M46.7444 41.6551H42.0829C41.2714 41.6551 40.6136 40.9972 40.6136 40.1858C40.6136 39.3744 41.2714 38.7165 42.0829 38.7165H46.7444C48.0221 38.7165 49.0615 37.6771 49.0615 36.3995V9.54877C49.0615 8.27111 48.0221 7.23162 46.7444 7.23162H5.25555C3.9779 7.23172 2.93851 8.27111 2.93851 9.54877V36.3997C2.93851 37.6772 3.9779 38.7167 5.25555 38.7167H33.0229C33.8344 38.7167 34.4922 39.3746 34.4922 40.186C34.4922 40.9974 33.8344 41.6553 33.0229 41.6553H5.25555C2.35757 41.6551 0 39.2975 0 36.3997V9.54877C0 6.65099 2.35757 4.29321 5.25555 4.29321H46.7444C49.6424 4.29321 52 6.65099 52 9.54897V36.3999C52 39.2975 49.6424 41.6551 46.7444 41.6551Z" fill="#0EBED9"/>
<path d="M33.0229 40.1858H18.9768V46.2377H33.0229V40.1858Z" fill="#CEE8FA"/>
<path d="M33.0226 47.7069H18.9768C18.1653 47.7069 17.5074 47.0489 17.5074 46.2376V40.1859C17.5074 39.3746 18.1653 38.7166 18.9768 38.7166H33.0225C33.834 38.7166 34.4918 39.3745 34.4918 40.1859V46.2376C34.4918 47.049 33.834 47.7069 33.0226 47.7069ZM20.4461 44.7684H31.5533V41.6552H20.4461V44.7684Z" fill="#0EBED9"/>
<path d="M37.4188 47.7069H14.5809C13.7694 47.7069 13.1116 47.049 13.1116 46.2376C13.1116 45.4262 13.7694 44.7683 14.5809 44.7683H37.4187C38.2302 44.7683 38.888 45.4262 38.888 46.2376C38.888 47.049 38.2302 47.7069 37.4188 47.7069Z" fill="#0EBED9"/>
<path d="M22.3497 31.8772C21.9167 31.2026 21.6645 30.401 21.6645 29.5399C21.6645 27.1455 23.6055 25.2044 26 25.2044C28.3944 25.2044 30.3356 27.1455 30.3356 29.5399C30.3356 30.4011 30.0833 31.2027 29.6503 31.8772H39.8683V26.7663L36.786 26.2733C36.2784 24.5947 35.39 23.0815 34.2209 21.8349L35.3364 18.9168L30.5321 16.1428L28.564 18.5652C27.74 18.3738 26.8821 18.2718 25.9997 18.2718C25.1182 18.2718 24.2596 18.3738 23.436 18.5652L21.4679 16.1428L16.6639 18.9168L17.7794 21.8349C16.6099 23.0816 15.7214 24.5947 15.2138 26.2733L12.1322 26.7663V31.8772H22.3497Z" fill="#CEE8FA"/>
<path d="M39.8683 33.3462H29.6505C29.1133 33.3462 28.6189 33.0529 28.3613 32.5815C28.1037 32.11 28.1239 31.5355 28.4142 31.0834C28.7103 30.6221 28.8668 30.0884 28.8668 29.5397C28.8668 27.9592 27.581 26.6735 26.0004 26.6735C24.4198 26.6735 23.134 27.9593 23.134 29.5397C23.134 30.0883 23.2905 30.6221 23.5865 31.0834C23.8769 31.5355 23.897 32.11 23.6395 32.5815C23.3819 33.0529 22.8874 33.3462 22.3502 33.3462H12.132C11.3205 33.3462 10.6627 32.6883 10.6627 31.8769V26.7661C10.6627 26.0443 11.1871 25.4292 11.8999 25.3154L14.1121 24.9614C14.5883 23.7286 15.2597 22.5674 16.0924 21.5363L15.2914 19.4412C15.0338 18.7669 15.3039 18.0053 15.929 17.6443L20.733 14.8703C21.3583 14.5093 22.1529 14.6561 22.6081 15.2161L24.0215 16.9559C25.3289 16.7518 26.6705 16.7516 27.9781 16.956L29.3917 15.2161C29.847 14.6559 30.6419 14.5094 31.2667 14.8703L36.0709 17.6443C36.6961 18.0052 36.9664 18.767 36.7085 19.4412L35.9075 21.5366C36.7398 22.5679 37.411 23.729 37.8872 24.9615L40.1002 25.3154C40.813 25.4294 41.3373 26.0444 41.3373 26.7663V31.8771C41.3376 32.6883 40.6798 33.3462 39.8683 33.3462ZM31.74 30.4077H38.3991V28.019L36.554 27.7238C35.9985 27.6351 35.5426 27.2369 35.3798 26.6985C34.9476 25.2693 34.1763 23.9349 33.1493 22.8396C32.7646 22.4293 32.6479 21.8353 32.8486 21.3101L33.5167 19.5624L30.8826 18.0414L29.7044 19.4914C29.3503 19.9272 28.7786 20.1227 28.2319 19.9962C26.7718 19.6573 25.2276 19.6573 23.7684 19.9962C23.221 20.1229 22.6497 19.9272 22.2958 19.4914L21.1178 18.0414L18.4838 19.5624L19.1519 21.3101C19.3528 21.8354 19.2359 22.4296 18.851 22.8399C17.8237 23.9347 17.0523 25.2691 16.6201 26.6985C16.4573 27.2369 16.0014 27.6351 15.4458 27.7238L13.6014 28.019V30.4077H20.2606C20.2174 30.1219 20.1955 29.8318 20.1955 29.5397C20.1955 26.3389 22.7996 23.735 26.0004 23.735C29.2011 23.735 31.8053 26.3389 31.8053 29.5397C31.8051 29.8318 31.7832 30.1219 31.74 30.4077Z" fill="#0EBED9"/>
</svg>
