<svg width="48" height="48" viewBox="0 0 48 48" fill="none" xmlns="http://www.w3.org/2000/svg">
<path d="M16.4759 30.9583V15.7696C16.4759 13.3299 18.4538 11.3521 20.8935 11.3521H31.524V6.41173C31.524 3.97198 29.5461 1.99414 27.1064 1.99414H5.84544C3.4057 1.99395 1.42786 3.97198 1.42786 6.41173V21.6004C1.42786 29.9112 8.16509 36.6486 16.476 36.6486C16.8453 36.6486 17.2112 36.6346 17.5739 36.6085C16.8664 34.8637 16.4759 32.9568 16.4759 30.9583Z" fill="#CEE8FA"/>
<path d="M16.476 38.076C7.39114 38.076 0 30.685 0 21.6002V6.4115C0 3.18829 2.62218 0.565918 5.84521 0.565918H27.1063C30.3295 0.565918 32.9517 3.1881 32.9517 6.41131V11.3517C32.9517 12.1402 32.3123 12.7796 31.5238 12.7796H20.8935C19.2449 12.7796 17.9039 14.1208 17.9039 15.7693V30.958C17.9039 32.7257 18.238 34.4462 18.8971 36.0715C19.0687 36.4949 19.0275 36.9748 18.7861 37.3625C18.5448 37.7503 18.1325 37.9992 17.6767 38.032C17.2739 38.0614 16.8699 38.076 16.476 38.076ZM5.84521 3.42163C4.1968 3.42163 2.85562 4.76291 2.85562 6.4115V21.6002C2.85562 28.8152 8.49542 34.7381 15.5977 35.1924C15.2324 33.8182 15.048 32.401 15.048 30.9582V15.7694C15.048 12.5462 17.6702 9.92403 20.8932 9.92403H30.0959V6.4115C30.0959 4.76291 28.7547 3.42173 27.1062 3.42173L5.84521 3.42163Z" fill="#0EBED9"/>
<path d="M31.5238 47.4343C22.439 47.4343 15.0479 40.0431 15.0479 30.9583V15.7697C15.0479 12.5465 17.67 9.92432 20.8931 9.92432H42.1541C45.3771 9.92432 47.9993 12.5465 47.9993 15.7697V20.703C47.9993 21.4914 47.3599 22.1308 46.5715 22.1308C45.7831 22.1308 45.1437 21.4914 45.1437 20.703V15.7697C45.1437 14.1211 43.8025 12.7799 42.1541 12.7799H20.8932C19.2447 12.7799 17.9037 14.1212 17.9037 15.7697V30.9584C17.9037 38.4686 24.0136 44.5787 31.5238 44.5787C39.034 44.5787 45.1442 38.4686 45.1442 30.9584V28.6781C45.1442 27.8897 45.7835 27.2503 46.572 27.2503C47.3604 27.2503 47.9998 27.8897 47.9998 28.6781V30.9584C47.9997 40.0433 40.6086 47.4343 31.5238 47.4343Z" fill="#0EBED9"/>
<path d="M25.8838 26.4616H23.0282C22.2397 26.4616 21.6003 25.8222 21.6003 25.0338C21.6003 24.2453 22.2397 23.606 23.0282 23.606H25.8838C26.6722 23.606 27.3116 24.2453 27.3116 25.0338C27.3116 25.8222 26.6724 26.4616 25.8838 26.4616Z" fill="#0EBED9"/>
<path d="M40.0196 26.4616H37.164C36.3756 26.4616 35.7362 25.8222 35.7362 25.0338C35.7362 24.2453 36.3756 23.606 37.164 23.606H40.0196C40.8081 23.606 41.4474 24.2453 41.4474 25.0338C41.4474 25.8222 40.8082 26.4616 40.0196 26.4616Z" fill="#0EBED9"/>
<path d="M31.524 39.7436C28.6188 39.7436 26.0398 38.0934 24.9538 35.5397C24.6453 34.8141 24.9833 33.9757 25.709 33.6672C26.4348 33.3586 27.2732 33.6969 27.5815 34.4223C28.2088 35.8971 29.793 36.888 31.5238 36.888C33.2546 36.888 34.8391 35.8973 35.4662 34.4223C35.7746 33.6966 36.6131 33.3582 37.3388 33.6672C38.0646 33.9757 38.4026 34.8141 38.0939 35.5397C37.0083 38.0936 34.4293 39.7436 31.524 39.7436Z" fill="#0EBED9"/>
<path d="M10.8359 17.1037H7.9803C7.19186 17.1037 6.55249 16.4643 6.55249 15.6759C6.55249 14.8874 7.19186 14.248 7.9803 14.248H10.8359C11.6244 14.248 12.2637 14.8874 12.2637 15.6759C12.2637 16.4643 11.6244 17.1037 10.8359 17.1037Z" fill="#0EBED9"/>
<path d="M11.2191 30.3861C11.0327 30.3861 10.8433 30.3492 10.6611 30.2717C9.93529 29.9632 9.59723 29.1248 9.90594 28.3991C10.9918 25.8453 13.5709 24.1953 16.4762 24.1953C17.2646 24.1953 17.904 24.8347 17.904 25.6231C17.904 26.4116 17.2646 27.0509 16.4762 27.0509C14.7454 27.0509 13.1609 28.0417 12.5338 29.5166C12.3027 30.0599 11.7746 30.3861 11.2191 30.3861Z" fill="#0EBED9"/>
</svg>
