<svg width="48" height="48" viewBox="0 0 48 48" fill="none" xmlns="http://www.w3.org/2000/svg">
<path d="M23.6351 37.4187C31.8055 37.4187 38.4289 30.7953 38.4289 22.6249C38.4289 14.4545 31.8055 7.83105 23.6351 7.83105C15.4647 7.83105 8.84131 14.4545 8.84131 22.6249C8.84131 30.7953 15.4647 37.4187 23.6351 37.4187Z" fill="#CEE8FA"/>
<path d="M24.8214 21.5109V17.2977C26.5031 17.5927 26.756 18.5249 26.794 19.0731C26.8037 19.2135 26.9196 19.3222 27.0605 19.3222H28.8973C29.0516 19.3222 29.173 19.1916 29.1651 19.0376C29.0459 16.7268 27.4619 15.2399 24.8215 14.906V13.4891C24.8215 13.3413 24.7017 13.2217 24.5541 13.2217H22.7174C22.5697 13.2217 22.4501 13.3414 22.4501 13.4891V14.906C19.7026 15.2534 18.0991 16.8489 18.0991 19.3222C18.0991 21.7955 19.7026 23.3908 22.4501 23.7383V27.9516C20.7683 27.6566 20.5154 26.7244 20.4775 26.1762C20.4677 26.0358 20.3518 25.9271 20.2109 25.9271H18.3741C18.2199 25.9271 18.0985 26.0577 18.1063 26.2117C18.2255 28.5225 19.8095 30.0094 22.45 30.3433V31.7603C22.45 31.908 22.5697 32.0276 22.7173 32.0276H24.554C24.7017 32.0276 24.8214 31.9079 24.8214 31.7603V30.3432C27.5688 29.9958 29.1723 28.4004 29.1723 25.927C29.1723 23.4537 27.5688 21.8583 24.8214 21.5109ZM22.4499 21.3462C20.4709 20.9993 20.4705 19.7697 20.4705 19.322C20.4705 18.8743 20.471 17.6446 22.4499 17.2976V21.3462ZM24.8214 27.9513V23.9027C26.8003 24.2497 26.8007 25.4793 26.8007 25.927C26.8007 26.3747 26.8004 27.6042 24.8214 27.9513Z" fill="#0EBED9"/>
<path d="M46.9766 31.8959C46.9758 31.5227 46.8267 31.1652 46.5623 30.9017C46.2978 30.6385 45.9353 30.4942 45.5663 30.4918L40.0345 30.5039C39.2573 30.5056 38.6288 31.137 38.6304 31.9141C38.6321 32.6904 39.2618 33.3184 40.0376 33.3184C40.0386 33.3184 40.0398 33.3184 40.0407 33.3184L42.4507 33.3131L33.6581 41.1806L31.1452 36.981C32.566 36.2389 33.8992 35.2722 35.0912 34.0802C41.4078 27.7634 41.4078 17.4857 35.0912 11.1691C28.7746 4.85249 18.4968 4.85249 12.1801 11.1691C11.6306 11.7185 11.6304 12.6096 12.1801 13.1593C12.7297 13.7087 13.6207 13.7088 14.1701 13.1593C19.3896 7.93977 27.882 7.94005 33.1012 13.1593C38.3204 18.3785 38.3204 26.8709 33.1012 32.0902C32.076 33.1153 30.9236 33.9358 29.6955 34.5584L29.5053 34.2404C29.2826 33.8682 28.9009 33.6197 28.4705 33.5664C28.04 33.5135 27.6093 33.6612 27.3027 33.968L25.3824 35.8883C21.3987 36.4082 17.2242 35.1445 14.1702 32.0904C13.6207 31.541 12.7296 31.541 12.1802 32.0904C11.6307 32.6398 11.6307 33.5309 12.1802 34.0806C15.0482 36.9486 18.733 38.5142 22.4929 38.7778L19.2924 41.9784C19.2253 41.9511 19.1562 41.9272 19.0836 41.9101C10.0996 39.7976 3.82536 31.8673 3.82536 22.6245C3.82536 17.3328 5.88607 12.3582 9.62763 8.61664C13.3692 4.87508 18.344 2.81437 23.6356 2.81437C34.5589 2.81437 43.4459 11.7012 43.4459 22.6245C43.4459 23.4016 44.0759 24.0316 44.8531 24.0316C45.6303 24.0316 46.2603 23.4016 46.2603 22.6245C46.2603 10.1494 36.1109 0 23.6356 0C17.5923 0 11.9107 2.3534 7.6375 6.62661C3.36429 10.8998 1.01099 16.5813 1.01099 22.6245C1.01099 27.7541 2.77536 32.7783 5.97888 36.7718C8.82222 40.3162 12.698 42.9381 17.0088 44.2613L15.6724 45.5977C15.123 46.1471 15.123 47.0382 15.6724 47.5879C15.9472 47.8626 16.3074 48 16.6675 48C17.0276 48 17.3879 47.8626 17.6625 47.5879L26.7282 38.5222C27.331 38.4058 27.9281 38.2542 28.5166 38.0694L32.1186 44.0887C32.3342 44.449 32.6995 44.6943 33.1148 44.7574C33.5297 44.8204 33.9515 44.6949 34.2646 44.4147L44.1705 35.551L44.1746 37.4339C44.1763 38.2102 44.806 38.8382 45.5818 38.8382C45.5827 38.8382 45.584 38.8382 45.5849 38.8382C46.3621 38.8365 46.9907 38.2051 46.989 37.428L46.9766 31.8959Z" fill="#0EBED9"/>
</svg>
