<svg width="48" height="48" viewBox="0 0 48 48" fill="none" xmlns="http://www.w3.org/2000/svg">
<path d="M32.7761 36.2753H5.9909C5.29697 36.2753 4.73438 35.7127 4.73438 35.0188V14.3516C4.73438 13.6588 5.29519 13.0966 5.98819 13.0951L42.0062 13.0139C42.0072 13.0139 42.0081 13.0139 42.0089 13.0139C42.3416 13.0139 42.6608 13.1458 42.8965 13.3809C43.1327 13.6166 43.2655 13.9367 43.2655 14.2704V34.9376C43.2655 35.6315 42.7028 36.1941 42.0089 36.1941C41.3151 36.1941 40.7524 35.6315 40.7524 34.9376V15.5299L7.24743 15.6054V33.7623H32.776C33.4698 33.7623 34.0325 34.3248 34.0325 35.0188C34.0326 35.7128 33.47 36.2753 32.7761 36.2753Z" fill="#0EBED9"/>
<path d="M42.7826 19.2835H5.21721C3.02975 19.2835 1.25647 17.5104 1.25647 15.3228C1.25647 13.1353 3.02965 11.3621 5.21721 11.3621H42.7827C44.9701 11.3621 46.7434 13.1352 46.7434 15.3228C46.7433 17.5104 44.9701 19.2835 42.7826 19.2835Z" fill="#CEE8FA"/>
<path d="M42.7826 20.54H5.21727C2.34037 20.54 0 18.1996 0 15.3227C0 12.4458 2.34037 10.1055 5.21727 10.1055H42.7827C45.6597 10.1055 48 12.4459 48 15.3227C48 18.1996 45.6595 20.54 42.7826 20.54ZM5.21727 12.6186C3.72618 12.6186 2.51306 13.8317 2.51306 15.3228C2.51306 16.814 3.72609 18.0271 5.21727 18.0271H42.7827C44.2738 18.0271 45.4869 16.814 45.4869 15.3228C45.4869 13.8317 44.2739 12.6186 42.7827 12.6186H5.21727Z" fill="#0EBED9"/>
<path d="M15.7222 12.5792H11.7543C9.93831 12.5792 8.46082 11.1018 8.46082 9.28566V4.06024C8.46082 3.3663 9.02341 2.80371 9.71735 2.80371H17.7591C18.4531 2.80371 19.0156 3.3663 19.0156 4.06024V9.28566C19.0157 11.1017 17.5383 12.5792 15.7222 12.5792ZM10.9739 5.31677V9.28566C10.9739 9.71607 11.324 10.0661 11.7543 10.0661H15.7221C16.1525 10.0661 16.5026 9.71597 16.5026 9.28566V5.31677H10.9739Z" fill="#0EBED9"/>
<path d="M9.71722 8.64172H7.20416C6.51022 8.64172 5.94763 8.07913 5.94763 7.38519C5.94763 6.69125 6.51022 6.12866 7.20416 6.12866H9.71722C10.4112 6.12866 10.9737 6.69125 10.9737 7.38519C10.9737 8.07922 10.4112 8.64172 9.71722 8.64172Z" fill="#0EBED9"/>
<path d="M8.15986 45.1965C6.27184 45.1965 4.73584 43.6605 4.73584 41.7725V35.0185C4.73584 34.3245 5.29843 33.762 5.99237 33.762C6.6864 33.762 7.2489 34.3246 7.2489 35.0185V41.7725C7.2489 42.2749 7.65755 42.6835 8.15986 42.6835C8.66218 42.6835 9.07083 42.2748 9.07083 41.7725V40.2122C9.07083 39.5183 9.63342 38.9557 10.3274 38.9557C11.0214 38.9557 11.5839 39.5183 11.5839 40.2122V41.7725C11.5839 43.6607 10.0479 45.1965 8.15986 45.1965Z" fill="#0EBED9"/>
<path d="M39.8402 44.6941C37.9522 44.6941 36.4161 43.1581 36.4161 41.2701V39.7098C36.4161 39.0159 36.9788 38.4533 37.6727 38.4533C38.3665 38.4533 38.9292 39.0159 38.9292 39.7098V41.2701C38.9292 41.7725 39.3379 42.181 39.8402 42.181C40.3425 42.181 40.7511 41.7724 40.7511 41.2701V34.5161C40.7511 33.822 41.3138 33.2595 42.0077 33.2595C42.7015 33.2595 43.2642 33.8221 43.2642 34.5161V41.2701C43.2642 43.1582 41.7281 44.6941 39.8402 44.6941Z" fill="#0EBED9"/>
</svg>
