<svg width="48" height="48" viewBox="0 0 48 48" fill="none" xmlns="http://www.w3.org/2000/svg">
<g clip-path="url(#clip0_301_1079)">
<path d="M17.4389 33.1288C14.6745 35.6361 10.5146 36.4675 8.23382 37.8233C4.3107 34.1661 1.79027 29.0244 1.56958 23.2924C2.9401 22.781 4.26974 22.1513 5.01926 21.4398C7.01658 19.5403 8.57422 18.9076 9.93883 21.4398C11.302 23.9719 11.9347 26.2133 14.3222 26.602C16.7084 26.9921 21.0918 29.8164 17.4389 33.1288Z" fill="#CEE8FA"/>
<path d="M23.681 21.0305C23.3674 23.6851 23.547 26.3353 25.8917 28.2798C25.9254 28.3078 25.956 28.3376 25.9872 28.3671C26.3425 27.9099 26.7271 27.4706 27.1442 27.0536C29.4061 24.7916 32.3234 23.4735 35.2017 22.7193C33.7781 21.0363 32.2832 14.7034 27.2595 17.2575C26.2081 17.7922 25.8273 10.1783 26.0538 9.88876C28.2182 7.07348 30.0251 5.84687 33.3347 4.71157C33.4234 4.67988 33.494 4.6302 33.5683 4.58032C30.3644 2.60409 26.5949 1.46167 22.553 1.46167C18.1117 1.46167 13.9956 2.844 10.601 5.19953C10.619 5.28109 10.6435 5.36519 10.6789 5.44309C12.1109 8.5309 13.9568 13.7714 17.1043 14.9773C18.6315 15.5638 24.1359 17.1783 23.681 21.0305Z" fill="#CEE8FA"/>
<path d="M27.3351 29.0213C27.4505 28.88 27.5689 28.7406 27.6908 28.6038C27.7174 28.5738 27.7446 28.5447 27.7714 28.5151C27.9033 28.3699 28.0377 28.2264 28.1772 28.0867C28.2826 27.9812 28.3909 27.8776 28.5011 27.7755C28.5346 27.7441 28.569 27.7141 28.6029 27.6833C28.6809 27.6124 28.7596 27.542 28.8401 27.4727C28.8798 27.4384 28.92 27.4047 28.9601 27.3709C29.0384 27.305 29.1178 27.2399 29.1981 27.1753C29.2377 27.1434 29.2773 27.1115 29.3174 27.0803C29.4082 27.0092 29.5005 26.9393 29.5939 26.87C29.6234 26.8481 29.6527 26.8256 29.6823 26.804C29.8056 26.7141 29.9308 26.6259 30.0585 26.5394C30.0847 26.5216 30.1114 26.5048 30.1377 26.4871C30.2387 26.4196 30.3407 26.3529 30.4443 26.2875C30.4904 26.2582 30.5369 26.2297 30.5834 26.2011C30.6701 26.1477 30.7577 26.0949 30.8463 26.0429C30.8967 26.0133 30.9471 25.9834 30.998 25.9544C31.0956 25.8984 31.1948 25.8437 31.2946 25.7893C31.36 25.7538 31.4252 25.7187 31.4908 25.6842C31.5908 25.6316 31.6915 25.5796 31.7937 25.5286C31.8647 25.4932 31.936 25.4587 32.0075 25.4244C32.0735 25.3926 32.14 25.3611 32.2069 25.33C32.2875 25.2924 32.3683 25.255 32.4496 25.2188C32.4967 25.1978 32.5445 25.1775 32.5917 25.1569C32.7772 25.0761 32.9637 24.9981 33.1515 24.9235C33.174 24.9146 33.1963 24.9054 33.219 24.8965C33.3325 24.852 33.4465 24.8086 33.5606 24.7663C33.5721 24.7621 33.5836 24.758 33.5949 24.7537C39.5068 22.5768 46.1586 23.3817 46.2604 23.3948C47.0598 23.4981 47.7927 22.9341 47.8967 22.1341C48.0008 21.3339 47.4363 20.6009 46.6361 20.4968C46.5252 20.4824 45.9005 20.4052 44.9161 20.3527C44.2629 13.3546 40.3791 7.06614 34.3358 3.33662C34.3329 3.33484 34.3301 3.33315 34.3274 3.33137C34.3153 3.32396 34.3014 3.31571 34.2862 3.30681C34.2034 3.25506 34.1191 3.20471 34.0311 3.1524C34.0131 3.14115 33.9945 3.1299 33.9741 3.1179C33.9697 3.11528 33.9653 3.11265 33.961 3.11012C33.8707 3.05753 33.7803 3.00475 33.6851 2.95009C33.576 2.88765 33.4667 2.82681 33.3552 2.76559C33.2587 2.71253 33.1621 2.66069 33.0654 2.60894C33.0463 2.59797 33.0267 2.58747 33.0071 2.57725L32.9255 2.53516C32.8455 2.49391 32.7662 2.45303 32.6859 2.41282C32.3572 2.24416 32.0089 2.07879 31.6574 1.92438C31.542 1.87292 31.4265 1.82295 31.3097 1.77298C31.3087 1.77251 31.3076 1.77214 31.3066 1.77167C31.303 1.77007 31.2992 1.76848 31.2955 1.76689C30.5817 1.4652 29.8583 1.20186 29.1489 0.985582C29.0278 0.948364 28.9051 0.912552 28.784 0.877209C28.5724 0.815428 28.3657 0.758897 28.1693 0.709304C28.1117 0.693929 28.054 0.679773 27.9927 0.664774C27.8815 0.637118 27.7704 0.61068 27.6612 0.584993C27.5322 0.554431 27.4015 0.525369 27.2759 0.498932L27.2494 0.493213C27.1461 0.470995 27.0438 0.449245 26.9404 0.429933L26.7395 0.390183C26.605 0.364496 26.4686 0.340496 26.3449 0.320059C26.1298 0.28284 25.9147 0.249935 25.6996 0.218622C25.6941 0.217872 25.6886 0.217029 25.6832 0.216279L25.6463 0.21131C25.5435 0.197529 25.4418 0.184029 25.3408 0.171748C25.204 0.155061 25.0676 0.139873 24.9307 0.124592C24.9242 0.123842 24.9178 0.12328 24.9113 0.12253L24.678 0.0998426C24.4051 0.0747179 24.1556 0.0554056 23.9272 0.0417183C23.8519 0.0365621 23.7765 0.0329059 23.694 0.0293434C23.605 0.0249372 23.5158 0.0207185 23.4256 0.0176248C23.4122 0.0168748 23.399 0.0168748 23.3858 0.0163123C23.3485 0.0149998 23.3112 0.0138748 23.274 0.0124686C23.2274 0.0109686 23.1805 0.00853115 23.1341 0.00778116C23.1262 0.00759366 23.1183 0.00759366 23.1102 0.00759366C23.0305 0.00468745 22.9505 0.00318746 22.8793 0.00318746C22.7899 0.00187498 22.6998 0.00131248 22.6097 0.00103124C22.5907 0.00103124 22.5717 0 22.5527 0C22.5396 0 22.5266 0.000749991 22.5132 0.000749991C22.3822 0.000937489 22.253 0.00206248 22.1305 0.00487494C22.0499 0.00618743 21.9709 0.0101249 21.891 0.0124686C21.7909 0.0153748 21.6907 0.0177185 21.5908 0.0219372C21.5782 0.0224997 21.5653 0.0224997 21.5528 0.0230622C21.4444 0.0264372 21.3359 0.0327184 21.2269 0.0390933C21.1086 0.0461245 20.9907 0.0542806 20.8735 0.0624368C20.8552 0.0637493 20.8369 0.0648742 20.8187 0.0663742C20.8136 0.066843 20.8085 0.0671242 20.8035 0.0676867C20.7958 0.0682492 20.7882 0.0688117 20.7803 0.0695617C20.6577 0.0786553 20.5365 0.089999 20.4138 0.101718C20.3819 0.104155 20.3498 0.107155 20.3181 0.110811C20.2263 0.119436 20.1345 0.129467 20.0427 0.139873C20.0098 0.14353 19.977 0.147186 19.9442 0.150936C19.9291 0.152717 19.9147 0.154311 19.8984 0.156467C19.6427 0.18581 19.4067 0.217404 19.1788 0.252653C19.1552 0.256122 19.1314 0.259966 19.1078 0.263622L19.1109 0.263059C19.0881 0.266247 19.0652 0.269809 19.0428 0.273559C18.8491 0.303934 18.6562 0.33759 18.4634 0.373027L18.3975 0.385589C18.3302 0.398152 18.2629 0.411558 18.1957 0.424776C18.0817 0.447276 17.9666 0.470526 17.8439 0.496682L17.7262 0.521994C17.6932 0.529306 17.6605 0.537462 17.6274 0.544775C17.5281 0.566993 17.429 0.590056 17.3301 0.613587C17.2796 0.625587 17.2288 0.636368 17.1786 0.648649C17.172 0.650242 17.1621 0.652586 17.1578 0.653805C17.0071 0.691023 16.8565 0.729742 16.7068 0.770241C16.6548 0.784303 16.603 0.799491 16.5511 0.813928C16.3565 0.867834 16.1626 0.924552 15.9698 0.983707C15.9002 1.00508 15.8306 1.02636 15.7614 1.0483C15.5739 1.10792 15.3875 1.17046 15.2018 1.23505C15.122 1.2627 15.042 1.28999 14.9626 1.31858C14.78 1.38448 14.5984 1.4533 14.4177 1.52389C14.3203 1.56176 14.2233 1.60001 14.1266 1.63929C13.9588 1.70754 13.792 1.77767 13.6259 1.84985C13.5194 1.89617 13.4132 1.9437 13.3074 1.9916C13.1635 2.05694 13.0201 2.12351 12.8776 2.19194C12.756 2.25026 12.6349 2.30997 12.5141 2.37053C12.3987 2.42838 12.2839 2.48744 12.1696 2.54735C12.0321 2.61934 11.8952 2.69256 11.759 2.76756C11.6361 2.83506 11.514 2.90387 11.3925 2.97362C11.2813 3.03746 11.1706 3.10206 11.0603 3.16796C10.9112 3.25693 10.7631 3.34787 10.6159 3.4403C10.5519 3.48062 10.4877 3.52008 10.4241 3.56096C10.2334 3.68358 10.045 3.80996 9.85799 3.9382C9.82817 3.95864 9.79761 3.97767 9.76799 3.9983C9.75777 4.00542 9.7483 4.01339 9.73817 4.02061C7.9412 5.27085 6.3214 6.78133 4.94985 8.50921C1.77111 12.5139 0.0909424 17.3389 0.0909424 22.4625C0.0909424 22.7458 0.0964736 23.0349 0.107911 23.3461C0.108755 23.3707 0.110348 23.395 0.112317 23.4191C0.116255 23.5123 0.122255 23.6051 0.127411 23.6982C0.131629 23.7773 0.135004 23.8565 0.140161 23.9352C0.14691 24.0397 0.155535 24.1437 0.163692 24.2481C0.169973 24.3281 0.17541 24.4085 0.182348 24.4884C0.191535 24.5912 0.202504 24.6935 0.213003 24.7958C0.221347 24.8769 0.228753 24.9582 0.238034 25.0391C0.249472 25.1391 0.262597 25.2385 0.275253 25.3381C0.285753 25.421 0.295409 25.5042 0.30694 25.5869C0.320346 25.6839 0.335533 25.7805 0.350346 25.8772C0.363189 25.9618 0.375189 26.0465 0.388876 26.1309C0.404345 26.2264 0.421876 26.3213 0.438657 26.4164C0.453751 26.5014 0.467907 26.5866 0.483844 26.6712C0.501375 26.7641 0.520687 26.8566 0.539343 26.9493C0.556687 27.0357 0.573374 27.1223 0.591843 27.2084C0.611155 27.2987 0.632342 27.3884 0.65278 27.4784C0.672654 27.566 0.691779 27.6539 0.712685 27.7412C0.733872 27.8299 0.756935 27.9179 0.779341 28.0063C0.801559 28.0942 0.82284 28.1823 0.846277 28.27C0.86934 28.3571 0.894371 28.4434 0.918464 28.53C0.943026 28.6183 0.966838 28.7067 0.992526 28.7947C1.01737 28.88 1.04409 28.9648 1.07015 29.0497C1.09715 29.1381 1.12331 29.2266 1.15124 29.3146C1.17796 29.3985 1.20646 29.482 1.23421 29.5655C1.26346 29.6537 1.29205 29.7424 1.32243 29.8302C1.35093 29.9125 1.38102 29.994 1.41036 30.0759C1.44205 30.1643 1.47308 30.2531 1.50589 30.3411C1.53599 30.4217 1.56786 30.5017 1.59899 30.5818C1.63321 30.6702 1.66667 30.7589 1.70183 30.8468C1.7338 30.9265 1.76755 31.0055 1.80064 31.0848C1.83702 31.1724 1.87255 31.2601 1.90995 31.3471C1.94389 31.4259 1.97951 31.5039 2.01439 31.5823C2.05292 31.6691 2.0907 31.7562 2.13026 31.8424C2.16551 31.9191 2.20254 31.9949 2.23864 32.0713C2.27989 32.1584 2.32029 32.2458 2.36267 32.3323C2.39979 32.4082 2.43879 32.4832 2.47676 32.5588C2.51998 32.6446 2.56235 32.7307 2.60679 32.816C2.64635 32.8919 2.6876 32.9671 2.7281 33.0427C2.77291 33.1266 2.81707 33.2109 2.8631 33.2942C2.90491 33.37 2.94841 33.4448 2.99125 33.5202C3.03775 33.6021 3.08341 33.6845 3.13113 33.7661C3.17537 33.8419 3.22141 33.9168 3.26669 33.9921C3.31478 34.0721 3.36184 34.1525 3.41087 34.2319C3.45718 34.307 3.50537 34.3811 3.55271 34.4558C3.6025 34.5345 3.65153 34.6135 3.70234 34.6915C3.74996 34.7645 3.79937 34.8367 3.84802 34.9094C3.90052 34.9878 3.95209 35.0668 4.00552 35.1446C4.05465 35.216 4.10546 35.2864 4.15543 35.3575C4.21018 35.4352 4.26417 35.5134 4.31977 35.5906C4.37124 35.6617 4.42439 35.7317 4.4767 35.8022C4.53295 35.8781 4.58836 35.9545 4.64564 36.0296C4.69842 36.099 4.75308 36.1672 4.8067 36.236C4.86548 36.3113 4.92332 36.3871 4.98304 36.4618C5.03639 36.5284 5.09132 36.5939 5.14551 36.6599C5.20748 36.7354 5.26851 36.8115 5.33132 36.8864C5.38513 36.9502 5.44044 37.013 5.495 37.0763C5.56016 37.1521 5.62457 37.2283 5.69094 37.3035C5.74175 37.3611 5.79425 37.4175 5.84572 37.4746C5.91762 37.5542 5.98878 37.6345 6.06181 37.7132C6.10447 37.7591 6.14843 37.8041 6.19137 37.8497C6.27509 37.9384 6.35824 38.0274 6.44337 38.1149C6.46399 38.1361 6.48518 38.1566 6.5059 38.1777C6.74402 38.4204 6.98777 38.6591 7.23808 38.8926C7.23855 38.8931 7.23892 38.8933 7.23939 38.8936C10.8768 42.2854 15.5218 44.3619 20.4437 44.8239C20.4962 45.8094 20.5735 46.4351 20.5879 46.546C20.6735 47.2034 21.1911 47.721 21.8486 47.8065C22.0194 47.8287 23.4097 48.0003 25.4586 48.0003C29.909 48.0003 37.4659 47.1905 42.3737 42.283C44.9676 39.6891 46.7061 36.0697 47.5408 31.5252C47.6866 30.7316 47.1615 29.97 46.3678 29.8242C45.5729 29.6777 44.8124 30.2035 44.6668 30.9973C43.9409 34.9479 42.4742 38.0498 40.3072 40.2167C35.3032 45.2209 26.5309 45.1949 23.3866 45.0061C23.2061 42.0734 23.167 34.2503 27.2408 29.1404C27.2715 29.1004 27.3032 29.0606 27.3351 29.0213ZM25.9307 26.2038C25.0952 25.025 24.8631 23.4776 25.1317 21.2019C25.6839 16.5262 20.1534 14.5282 18.0714 13.776C17.9003 13.7142 17.7505 13.6603 17.6268 13.6127C15.5129 12.803 13.875 9.06786 12.6793 6.3408C12.5919 6.14168 12.5064 5.94659 12.4226 5.75675C13.9398 4.83313 15.5627 4.12786 17.2535 3.65171C17.2717 3.64655 17.2901 3.6413 17.3086 3.63624C17.5016 3.58243 17.6955 3.5318 17.8903 3.48399C17.9523 3.4688 18.0143 3.4554 18.0765 3.44087C18.2135 3.40871 18.3507 3.37712 18.4887 3.34806C18.5683 3.33109 18.6485 3.31543 18.7286 3.29968C18.8528 3.27502 18.9773 3.25121 19.1021 3.22881C19.1839 3.21418 19.2659 3.20031 19.348 3.18662C19.7205 3.12512 20.0951 3.07365 20.4719 3.03362C20.5126 3.0294 20.5532 3.02453 20.594 3.02078C20.7785 3.0024 20.9637 2.98675 21.1493 2.97362C21.1943 2.97053 21.2396 2.96762 21.285 2.96472C21.4511 2.95403 21.6173 2.94568 21.7839 2.93931C21.8307 2.93743 21.877 2.93518 21.9243 2.93378C22.1214 2.9275 22.319 2.92412 22.5169 2.92365C22.5549 2.92365 22.5936 2.92384 22.6326 2.92412C22.7406 2.92459 22.8486 2.9259 22.9564 2.92825C22.9781 2.92872 22.9996 2.92853 23.0211 2.92956C23.0414 2.9304 23.0617 2.93087 23.082 2.93087H23.0822C23.2085 2.93425 23.3344 2.93922 23.4604 2.94503C23.4908 2.94653 23.5216 2.94747 23.5519 2.94897C23.5524 2.94897 23.5547 2.94915 23.5563 2.94915C23.7023 2.95656 23.8479 2.96584 23.9936 2.97643C24.0065 2.97747 24.0188 2.97803 24.0318 2.97906C26.1396 3.13815 28.2005 3.63643 30.1378 4.45232C28.0543 5.50494 26.5502 6.8462 24.9028 8.98911C24.6276 9.34124 24.3676 9.67367 24.6366 13.0817C24.8089 15.2632 25.0943 16.7756 25.4854 17.5772C25.9813 18.5938 26.7439 18.7458 27.155 18.7458C27.1552 18.7458 27.1555 18.7458 27.1556 18.7458C27.4221 18.7458 27.68 18.6832 27.922 18.5602C28.4971 18.268 29.016 18.1197 29.4649 18.1197C30.8864 18.1197 31.8616 19.7484 32.9001 21.716C32.9262 21.7655 32.9521 21.8146 32.9778 21.8633C30.5097 22.725 28.0943 24.038 26.1113 26.0209C26.1095 26.0227 26.108 26.0244 26.1064 26.0261C26.0472 26.0844 25.9887 26.1438 25.9307 26.2038ZM41.9735 20.3187C40.1964 20.3695 38.0664 20.5608 35.8585 21.0496C35.7368 20.8302 35.6097 20.59 35.484 20.3518C34.4007 18.299 32.7637 15.1971 29.4644 15.1971C28.9472 15.1971 28.4134 15.2789 27.868 15.4411C27.5935 14.0236 27.4123 11.4784 27.4484 10.4763C29.2 8.268 30.6861 7.21239 33.4271 6.22765C38.2403 9.45402 41.3485 14.6 41.9735 20.3187ZM8.499 36.0365C8.4001 35.9344 8.30203 35.8317 8.20557 35.7276C8.19957 35.7211 8.19375 35.7145 8.18775 35.7079C8.09119 35.6036 7.99594 35.4982 7.90182 35.392C7.87023 35.3564 7.83929 35.3201 7.80798 35.2842C7.74001 35.2065 7.67251 35.1286 7.60604 35.0498C7.56976 35.007 7.53432 34.9639 7.49833 34.9209C7.43739 34.8476 7.37692 34.7741 7.31711 34.6999C7.28055 34.6547 7.24436 34.6094 7.20836 34.5639C7.14995 34.4901 7.09202 34.4159 7.03474 34.3414C6.99996 34.2962 6.96518 34.2511 6.93086 34.2056C6.87152 34.1271 6.81321 34.0481 6.75527 33.9688C6.72471 33.927 6.69377 33.8855 6.66368 33.8435C6.59468 33.7477 6.52709 33.6513 6.45996 33.5544C6.44215 33.5287 6.42368 33.5032 6.40606 33.4775C6.32178 33.3545 6.23909 33.2308 6.15762 33.106C6.13643 33.0736 6.11609 33.0407 6.09528 33.0082C6.03584 32.9157 5.97659 32.823 5.91875 32.7296C5.88997 32.6831 5.86194 32.6364 5.83353 32.5897C5.7846 32.5092 5.73594 32.4286 5.68831 32.3475C5.65803 32.2962 5.62841 32.2445 5.5986 32.1929C5.55388 32.1153 5.50972 32.0375 5.46604 31.9593C5.43651 31.9062 5.40697 31.8531 5.37791 31.7997C5.33469 31.7205 5.29232 31.6409 5.25023 31.5611C5.22295 31.5093 5.19548 31.4575 5.16857 31.4054C5.12404 31.3189 5.08045 31.2318 5.03723 31.1448C5.01454 31.0992 4.99148 31.0538 4.96917 31.008C4.90814 30.8827 4.84832 30.7566 4.79001 30.6298C4.78289 30.6144 4.77586 30.5987 4.76864 30.5832C4.71136 30.4577 4.65539 30.3316 4.60073 30.205C4.58011 30.1571 4.56023 30.1087 4.53998 30.0605C4.50286 29.9724 4.46592 29.8842 4.43011 29.7956C4.40742 29.7396 4.38558 29.6835 4.36346 29.6274C4.33121 29.5453 4.29914 29.463 4.26802 29.3804C4.24599 29.3218 4.22414 29.2633 4.20268 29.2046C4.17268 29.123 4.14352 29.0413 4.11474 28.9592C4.09411 28.9004 4.07349 28.8416 4.05333 28.7826C4.02437 28.6976 3.99652 28.6124 3.96877 28.527C3.95068 28.4712 3.93212 28.4153 3.9144 28.3592C3.88374 28.2615 3.85421 28.1631 3.82487 28.0649C3.81184 28.021 3.79815 27.9773 3.7854 27.9335C3.74462 27.7928 3.70543 27.6517 3.66793 27.5101C3.65724 27.4696 3.64731 27.4287 3.63699 27.3881C3.61028 27.2848 3.58393 27.1815 3.559 27.0776C3.5454 27.0213 3.53284 26.9648 3.51971 26.9084C3.49909 26.8192 3.47884 26.7302 3.45934 26.6405C3.44622 26.5799 3.43365 26.5189 3.42118 26.4582C3.40337 26.3719 3.38612 26.2856 3.36944 26.1992C3.35762 26.1372 3.3459 26.0752 3.33456 26.0132C3.31862 25.9256 3.30344 25.8379 3.28872 25.75C3.2785 25.6895 3.26828 25.6292 3.25862 25.5685C3.24372 25.4744 3.23003 25.3802 3.21644 25.2858C3.20866 25.2316 3.20041 25.1774 3.19309 25.123C3.17631 24.9984 3.16094 24.8733 3.1465 24.7481C3.14369 24.7238 3.14041 24.6997 3.13759 24.6755C3.12213 24.5363 3.10853 24.3968 3.09597 24.257C4.41277 23.6946 5.37632 23.1157 6.02637 22.4988C7.26348 21.3223 7.7626 21.2308 7.88626 21.2308C7.99894 21.2308 8.29613 21.4712 8.65266 22.1325C8.88628 22.5665 9.10124 22.9994 9.30918 23.4179C10.3318 25.4764 11.3891 27.6049 14.0868 28.0441C15.3192 28.2456 17.0428 29.2852 17.3349 30.2739C17.4861 30.7853 17.1908 31.3817 16.4575 32.0467C14.8924 33.4661 12.698 34.3299 10.7621 35.0922C9.9643 35.406 9.19631 35.7084 8.499 36.0365ZM20.409 41.8828C16.9735 41.5053 13.7037 40.2227 10.9309 38.1697C11.2233 38.0514 11.5247 37.9322 11.8321 37.8113C14.0013 36.9574 16.4598 35.9896 18.4205 34.2112C20.4573 32.3642 20.4784 30.6003 20.1374 29.4459C19.415 27.0008 16.44 25.4676 14.5571 25.16C13.3907 24.97 12.8803 24.0384 11.9263 22.1179C11.7078 21.6782 11.4819 21.2235 11.2252 20.7468C10.3534 19.1289 9.22977 18.3085 7.88607 18.3085C6.39312 18.3085 5.0901 19.3562 4.0134 20.3803C3.86293 20.523 3.57784 20.7468 3.06597 21.0298C3.4554 15.6496 6.02037 10.8032 9.98717 7.47844C9.99242 7.49054 9.99767 7.50226 10.0029 7.51454C11.4841 10.8919 13.3272 15.0952 16.5802 16.3414C16.718 16.3942 16.8862 16.4552 17.0784 16.5246C19.6073 17.4382 22.478 18.7564 22.2297 20.8593C21.9499 23.2281 21.9412 26.1615 24.0651 28.543C21.2424 32.8353 20.5162 38.1426 20.409 41.8828Z" fill="#0EBED9"/>
<path d="M22.0363 47.8181C21.6623 47.8181 21.2885 47.6756 21.0031 47.3902C20.4326 46.8196 20.4326 45.8944 21.0031 45.3237L32.98 33.3471C33.551 32.7765 34.4759 32.7766 35.0465 33.3471C35.6171 33.9176 35.6171 34.8428 35.0465 35.4134L23.0696 47.3901C22.7842 47.6756 22.41 47.8181 22.0363 47.8181Z" fill="#0EBED9"/>
</g>
<defs>
<clipPath id="clip0_301_1079">
<rect width="48" height="48" fill="white"/>
</clipPath>
</defs>
</svg>
