<svg width="48" height="48" viewBox="0 0 48 48" fill="none" xmlns="http://www.w3.org/2000/svg">
<path d="M29.2478 35.6918H7.92969V25.5022C7.92969 21.8952 10.8537 18.9712 14.4607 18.9712H29.2477V35.6918H29.2478Z" fill="#CEE8FA"/>
<path d="M29.2476 37.0544H7.92955C7.17711 37.0544 6.56689 36.4444 6.56689 35.6917V25.5021C6.56689 21.1494 10.1079 17.6084 14.4606 17.6084H29.2476C30.0001 17.6084 30.6103 18.2184 30.6103 18.9711V35.6917C30.6103 36.4443 30.0002 37.0544 29.2476 37.0544ZM9.29221 34.329H27.8849V20.3337H14.4606C11.6108 20.3337 9.29221 22.6523 9.29221 25.5021V34.329Z" fill="#0EBED9"/>
<path d="M43.2988 24.9142H4.70119C2.109 24.9142 0 22.8052 0 20.2131V15.9888C0 13.3966 2.109 11.2876 4.70119 11.2876H14.4223C15.1747 11.2876 15.785 11.8976 15.785 12.6503C15.785 13.4029 15.1747 14.0129 14.4223 14.0129H4.70119C3.61172 14.0129 2.72531 14.8993 2.72531 15.9888V20.2131C2.72531 21.3025 3.61172 22.1889 4.70119 22.1889H43.2988C44.3883 22.1889 45.2747 21.3025 45.2747 20.2131V15.9888C45.2747 14.8993 44.3883 14.0129 43.2988 14.0129H24C23.2476 14.0129 22.6373 13.4029 22.6373 12.6503C22.6373 11.8976 23.2476 11.2876 24 11.2876H43.2988C45.891 11.2876 48 13.3966 48 15.9888V20.2131C48 22.8054 45.891 24.9142 43.2988 24.9142Z" fill="#0EBED9"/>
<path d="M24.0011 13.9336C23.5837 13.9336 23.1716 13.7425 22.9044 13.3811C22.4569 12.776 22.5846 11.9227 23.1898 11.4753C24.476 10.5203 27.1341 8.0037 27.1341 6.32529C27.1341 4.50926 25.816 3.19113 24 3.19113C22.2717 3.19113 20.8658 4.5971 20.8658 6.32529C20.8658 7.07791 20.2556 7.68794 19.5032 7.68794C18.7507 7.68794 18.1405 7.07791 18.1405 6.32529V6.20023C18.1405 6.16095 18.1421 6.12213 18.1454 6.0837C18.2724 2.96426 20.8499 0.46582 24 0.46582C27.3404 0.46582 29.8594 2.98488 29.8594 6.32529C29.8594 9.83088 25.3271 13.2842 24.8103 13.6666C24.5666 13.8468 24.2826 13.9336 24.0011 13.9336Z" fill="#0EBED9"/>
<path d="M34.0593 44.5485H16.0266C15.2742 44.5485 14.6639 43.9385 14.6639 43.1858V35.6913C14.6639 34.9386 15.2742 34.3286 16.0266 34.3286H40.0702C40.8226 34.3286 41.4328 34.9386 41.4328 35.6913C41.4328 36.4439 40.8226 37.0539 40.0702 37.0539H17.3893V41.8231H34.0593C34.8118 41.8231 35.422 42.4331 35.422 43.1857C35.422 43.9385 34.8119 44.5485 34.0593 44.5485Z" fill="#0EBED9"/>
<path d="M40.0704 35.6914V24.4147C40.0704 21.4081 37.633 18.9707 34.6264 18.9707H16.0267V35.6913H40.0704V35.6914Z" fill="#CEE8FA"/>
<path d="M40.0703 37.0544H16.0266C15.2742 37.0544 14.6639 36.4444 14.6639 35.6917V18.9711C14.6639 18.2184 15.2742 17.6084 16.0266 17.6084H34.6262C38.3794 17.6084 41.4328 20.6618 41.4328 24.415V35.6917C41.4329 36.4443 40.8227 37.0544 40.0703 37.0544ZM17.3893 34.329H38.7075V24.415C38.7075 22.1646 36.8765 20.3337 34.6262 20.3337H17.3893V34.329Z" fill="#0EBED9"/>
<path d="M16.0266 47.5346C15.2742 47.5346 14.6639 46.9246 14.6639 46.1719V43.1864C14.6639 42.4338 15.2742 41.8237 16.0266 41.8237C16.779 41.8237 17.3893 42.4338 17.3893 43.1864V46.1719C17.3893 46.9245 16.7791 47.5346 16.0266 47.5346Z" fill="#0EBED9"/>
<path d="M40.0702 47.5344C39.3177 47.5344 38.7075 46.9244 38.7075 46.1717V34.8163C38.7075 34.0636 39.3177 33.4536 40.0702 33.4536C40.8226 33.4536 41.4328 34.0636 41.4328 34.8163V46.1718C41.4328 46.9243 40.8226 47.5344 40.0702 47.5344Z" fill="#0EBED9"/>
<path d="M34.0592 47.5346C33.3067 47.5346 32.6965 46.9246 32.6965 46.1719V43.1864C32.6965 42.4338 33.3067 41.8237 34.0592 41.8237C34.8116 41.8237 35.4218 42.4338 35.4218 43.1864V46.1719C35.4218 46.9245 34.8118 47.5346 34.0592 47.5346Z" fill="#0EBED9"/>
<path d="M28.0484 47.5346C27.296 47.5346 26.6858 46.9246 26.6858 46.1719V43.1864C26.6858 42.4338 27.296 41.8237 28.0484 41.8237C28.8009 41.8237 29.4111 42.4338 29.4111 43.1864V46.1719C29.4111 46.9245 28.8009 47.5346 28.0484 47.5346Z" fill="#0EBED9"/>
<path d="M22.0376 47.5346C21.2851 47.5346 20.6749 46.9246 20.6749 46.1719V43.1864C20.6749 42.4338 21.2851 41.8237 22.0376 41.8237C22.79 41.8237 23.4002 42.4338 23.4002 43.1864V46.1719C23.4002 46.9245 22.79 47.5346 22.0376 47.5346Z" fill="#0EBED9"/>
</svg>
