<svg width="48" height="48" viewBox="0 0 48 48" fill="none" xmlns="http://www.w3.org/2000/svg">
<g clip-path="url(#clip0_301_1066)">
<path d="M44.1355 14.8317C41.9165 9.95834 31.1028 10.1125 19.9824 15.176C8.86203 20.2394 1.64606 28.2948 3.86506 33.1682C6.08407 38.0416 16.8978 37.8874 28.0181 32.8239C39.1385 27.7605 46.3545 19.7051 44.1355 14.8317Z" fill="#CEE8FA"/>
<path d="M12.2767 38.0253C7.3563 38.0253 3.94811 36.4916 2.68014 33.7065C1.37964 30.8504 2.54167 27.1809 5.95173 23.3742C9.11327 19.8451 13.9045 16.5127 19.4428 13.9911C25.1327 11.4004 30.9143 9.97363 35.7227 9.97363C40.6432 9.97363 44.0513 11.5074 45.3192 14.2925C46.6197 17.1486 45.4578 20.8181 42.0476 24.6248C38.8861 28.1538 34.0949 31.4863 28.5565 34.0079C22.8669 36.5986 17.0852 38.0253 12.2767 38.0253ZM35.7228 12.5767C31.343 12.5767 25.8023 13.9558 20.5215 16.3601C15.3032 18.7361 10.8174 21.844 7.89048 25.1111C5.25105 28.0574 4.21539 30.7972 5.04902 32.6281C5.85761 34.404 8.49208 35.4226 12.2767 35.4226C16.6566 35.4226 22.1972 34.0436 27.478 31.6393C32.6964 29.2633 37.182 26.1554 40.1091 22.8883C42.7485 19.9419 43.7842 17.2021 42.9505 15.3712C42.142 13.5952 39.5076 12.5767 35.7228 12.5767Z" fill="#0EBED9"/>
<path d="M7.14262 25.3011C6.79153 25.3011 6.44165 25.1599 6.18506 24.8813C2.59228 20.9802 1.34756 17.2198 2.68031 14.2926C3.77793 11.882 6.42815 10.4179 10.3442 10.0588C11.0603 9.99304 11.6935 10.5201 11.7591 11.2359C11.8247 11.9516 11.2977 12.585 10.582 12.6507C7.69228 12.9158 5.72728 13.882 5.04918 15.3711C4.19034 17.2571 5.30231 20.0808 8.09953 23.118C8.58656 23.6468 8.55253 24.4701 8.02387 24.9569C7.77393 25.1872 7.45781 25.3011 7.14262 25.3011Z" fill="#0EBED9"/>
<path d="M35.7439 38.0279C34.6561 38.0279 33.4961 37.9529 32.2698 37.8006C29.5374 37.4613 26.6447 36.7591 23.6723 35.7134C22.9943 35.4748 22.638 34.7318 22.8765 34.0538C23.1149 33.3759 23.8577 33.0193 24.5359 33.258C27.333 34.242 30.0429 34.9012 32.5907 35.2176C37.9512 35.8832 41.9205 34.891 42.951 32.6283C43.7845 30.7975 42.7488 28.0577 40.1095 25.1113C37.1826 21.8442 32.6968 18.7363 27.4785 16.3603C26.221 15.7879 24.9394 15.2676 23.6691 14.8142C22.9922 14.5727 22.6393 13.8279 22.881 13.1509C23.1225 12.4741 23.8666 12.121 24.5442 12.3628C25.8831 12.8408 27.2331 13.3887 28.557 13.9915C34.0953 16.5131 38.8865 19.8453 42.0481 23.3746C45.4583 27.1813 46.6202 30.8507 45.3197 33.7068C44.0399 36.5177 40.6252 38.0279 35.7439 38.0279Z" fill="#0EBED9"/>
<path d="M24 47.425C20.8618 47.425 18.0037 44.8471 15.9523 40.166C14.0504 35.8263 13.0031 30.0849 13.0031 23.9995C13.0031 17.9141 14.0504 12.1728 15.9523 7.83309C18.0038 3.15206 20.8618 0.574219 24 0.574219C26.6809 0.574219 29.134 2.4195 31.0944 5.91028C31.4464 6.53691 31.2236 7.33022 30.5969 7.68216C29.9706 8.03428 29.1768 7.81153 28.8251 7.18472C27.3737 4.60041 25.6602 3.177 24 3.177C21.9883 3.177 19.924 5.25497 18.3363 8.87794C16.5757 12.8956 15.606 18.266 15.606 23.9996C15.606 29.7333 16.5757 35.1037 18.3364 39.1212C19.9242 42.7442 21.9885 44.8222 24.0001 44.8222C25.7737 44.8222 27.2267 43.2494 28.1336 41.9299C29.1196 40.4952 30.0033 38.5622 30.689 36.3402C30.9012 35.6535 31.6294 35.269 32.3164 35.4805C33.0031 35.6925 33.388 36.4212 33.1761 37.1079C32.4028 39.6135 31.4279 41.7319 30.2785 43.4043C28.4709 46.0346 26.2997 47.425 24 47.425Z" fill="#0EBED9"/>
<path d="M23.999 27.7783C26.0862 27.7783 27.7781 26.0864 27.7781 23.9993C27.7781 21.9122 26.0862 20.2202 23.999 20.2202C21.9119 20.2202 20.22 21.9122 20.22 23.9993C20.22 26.0864 21.9119 27.7783 23.999 27.7783Z" fill="white"/>
<path d="M23.9998 29.0806C21.1983 29.0806 18.9192 26.8015 18.9192 24C18.9192 21.1986 21.1983 18.9194 23.9998 18.9194C26.8012 18.9194 29.0804 21.1986 29.0804 24C29.0804 26.8015 26.8012 29.0806 23.9998 29.0806ZM23.9998 21.5223C22.6336 21.5223 21.5221 22.6338 21.5221 24C21.5221 25.3662 22.6336 26.4777 23.9998 26.4777C25.366 26.4777 26.4775 25.3662 26.4775 24C26.4775 22.6338 25.366 21.5223 23.9998 21.5223Z" fill="#0EBED9"/>
<path d="M43.9172 35.8386C45.4533 35.8386 46.6986 34.5934 46.6986 33.0573C46.6986 31.5211 45.4533 30.2759 43.9172 30.2759C42.3811 30.2759 41.1359 31.5211 41.1359 33.0573C41.1359 34.5934 42.3811 35.8386 43.9172 35.8386Z" fill="#CEE8FA"/>
<path d="M43.9173 37.1398C41.666 37.1398 39.8345 35.3082 39.8345 33.0569C39.8345 30.8056 41.666 28.9741 43.9173 28.9741C46.1686 28.9741 48.0001 30.8056 48.0001 33.0569C48.0001 35.3082 46.1686 37.1398 43.9173 37.1398ZM43.9173 31.577C43.1012 31.577 42.4373 32.2409 42.4373 33.0569C42.4373 33.873 43.1013 34.5371 43.9173 34.5371C44.7333 34.5371 45.3972 33.8731 45.3972 33.0569C45.3973 32.2408 44.7334 31.577 43.9173 31.577Z" fill="#0EBED9"/>
<path d="M4.08265 17.7244C5.61876 17.7244 6.86403 16.4791 6.86403 14.943C6.86403 13.4069 5.61876 12.1616 4.08265 12.1616C2.54653 12.1616 1.30127 13.4069 1.30127 14.943C1.30127 16.4791 2.54653 17.7244 4.08265 17.7244Z" fill="#CEE8FA"/>
<path d="M4.08281 19.0251C1.8315 19.0251 0 17.1936 0 14.9423C0 12.691 1.8315 10.8594 4.08281 10.8594C6.33412 10.8594 8.16572 12.691 8.16572 14.9423C8.16572 17.1936 6.33412 19.0251 4.08281 19.0251ZM4.08281 13.4622C3.26672 13.4622 2.60287 14.1261 2.60287 14.9423C2.60287 15.7584 3.26681 16.4222 4.08281 16.4222C4.89891 16.4222 5.56294 15.7583 5.56294 14.9423C5.56284 14.1262 4.89891 13.4622 4.08281 13.4622Z" fill="#0EBED9"/>
</g>
<defs>
<clipPath id="clip0_301_1066">
<rect width="48" height="48" fill="white"/>
</clipPath>
</defs>
</svg>
